# xmcd CD database file
#
# Track frame offsets:
#	150
#	12639
#	35061
#	63001
#	79204
#	91299
#	114014
#	138467
#	156990
#	168908
#	185294
#	208198
#	222399
#	234565
#	253349
#	267244
#	279459
#	290359
#	303480
#
# Disc length: 4419 seconds
#
# Revision: 5
# Processed by: cddbd v1.5.2PL0 Copyright (c) Steve Scherf et al.
# Submitted via: CDex 1.51
#
DISCID=17114113
DTITLE=Woody Herman - [CD 10-10] - Jumpin' At The Woodside
DYEAR=1900
DGENRE=Jazz
TTITLE0=Love Is A Many Splendored Thing  [1955]
TTITLE1=Drums In Hi-Fly  [1955]
TTITLE2=9-20 Special  [1955]
TTITLE3=Bags' Other Grouve  [1955]
TTITLE4=Brodway  [1955]
TTITLE5=Jumpin' At The Woodside  [1955]
TTITLE6=The Boot  [1955]
TTITLE7=Wailing Wall  [1955]
TTITLE8=Bass Face  [1955]
TTITLE9=Junior  [1955]
TTITLE10=Everyday I Have The Blues  [1955]
TTITLE11=Trouble In Mind  [1956]
TTITLE12=Smack Dab In The Middle  [1956]
TTITLE13=Pinetop's Blues  [1956]
TTITLE14=Basin Street Blues  [1955]
TTITLE15=(They Call It)  Stormy Monday  [1956]
TTITLE16=Dupree Blues  [1956]
TTITLE17=I Want A Little Girl  [1955]
TTITLE18=Blues Groove  [1955]
EXTD=
EXTT0=
EXTT1=
EXTT2=
EXTT3=
EXTT4=
EXTT5=
EXTT6=
EXTT7=
EXTT8=
EXTT9=
EXTT10=
EXTT11=
EXTT12=
EXTT13=
EXTT14=
EXTT15=
EXTT16=
EXTT17=
EXTT18=
PLAYORDER=
